<svg width="21" height="17" viewBox="0 0 21 17" fill="none" xmlns="http://www.w3.org/2000/svg">
<path d="M20.8355 10.7443C20.8355 8.95563 19.5835 7.39496 17.7195 6.55029C17.8295 6.94029 17.8928 7.34296 17.9041 7.75629C18.0901 7.86696 18.2701 7.98629 18.4381 8.11629C19.3781 8.84163 19.8968 9.77429 19.8968 10.7443C19.8968 11.7136 19.3801 12.647 18.4381 13.371C17.4068 14.1663 16.0201 14.605 14.5341 14.605C13.5321 14.605 12.5755 14.405 11.7421 14.0323C11.2248 14.1343 10.6868 14.199 10.1328 14.2216C11.2695 15.0756 12.8215 15.603 14.5341 15.603C15.6335 15.603 16.6668 15.387 17.5661 15.005L19.8601 16.1756L19.3968 13.835C20.2948 12.995 20.8355 11.9183 20.8355 10.7443Z" fill="#6E6E6E"/>
<path d="M17.2515 7.10352C17.2388 6.69085 17.1768 6.28752 17.0674 5.89818C16.2668 3.04885 12.9788 0.914185 9.04478 0.914185C4.51078 0.914851 0.835449 3.74952 0.835449 7.24618C0.835449 8.77618 1.53878 10.1782 2.71012 11.2735L2.10612 14.3215L5.09478 12.7968C6.26678 13.2942 7.61278 13.5782 9.04478 13.5782C9.19078 13.5782 9.33612 13.5742 9.48012 13.5688C10.0328 13.5468 10.5714 13.4815 11.0901 13.3788C14.6341 12.6782 17.2541 10.1982 17.2541 7.24618C17.2534 7.19885 17.2528 7.15152 17.2515 7.10352ZM14.1321 10.6702C12.8874 11.6288 11.2454 12.1902 9.47012 12.2675C9.32945 12.2748 9.18745 12.2782 9.04412 12.2782C8.76945 12.2782 8.49812 12.2662 8.22945 12.2428C6.60412 12.1068 5.11012 11.5608 3.95745 10.6715C2.73278 9.72685 2.05812 8.51085 2.05812 7.24752C2.05812 5.98418 2.73278 4.76818 3.95745 3.82352C5.30078 2.78752 7.10745 2.21685 9.04412 2.21685C10.9814 2.21685 12.7888 2.78752 14.1308 3.82352C14.7388 4.29218 15.2101 4.82752 15.5328 5.40218C15.7368 5.76685 15.8801 6.14752 15.9595 6.53685C16.0068 6.77085 16.0308 7.00818 16.0308 7.24685C16.0308 8.50952 15.3568 9.72552 14.1321 10.6702Z" fill="#6E6E6E"/>
<path d="M11.9568 8.1633C12.4528 8.1633 12.8548 7.76103 12.8548 7.26481C12.8548 6.7686 12.4528 6.36633 11.9568 6.36633C11.4609 6.36633 11.0588 6.7686 11.0588 7.26481C11.0588 7.76103 11.4609 8.1633 11.9568 8.1633Z" fill="#6E6E6E"/>
<path d="M9.04473 8.1633C9.54068 8.1633 9.94273 7.76103 9.94273 7.26481C9.94273 6.7686 9.54068 6.36633 9.04473 6.36633C8.54878 6.36633 8.14673 6.7686 8.14673 7.26481C8.14673 7.76103 8.54878 8.1633 9.04473 8.1633Z" fill="#6E6E6E"/>
<path d="M6.1328 8.1639C6.62912 8.1639 7.03146 7.76134 7.03146 7.26475C7.03146 6.76816 6.62912 6.3656 6.1328 6.3656C5.63648 6.3656 5.23413 6.76816 5.23413 7.26475C5.23413 7.76134 5.63648 8.1639 6.1328 8.1639Z" fill="#6E6E6E"/>
</svg>
